<?xml version="1.0" encoding="UTF-8" standalone="no"?>
<!-- Created with Inkscape (http://www.inkscape.org/) -->

<svg
   version="1.1"
   id="svg2"
   width="799.66809"
   height="800.38306"
   viewBox="0 0 799.66809 800.38306"
   sodipodi:docname="Senato_della_Repubblica_LOGO_(Italia).png"
   xmlns:inkscape="http://www.inkscape.org/namespaces/inkscape"
   xmlns:sodipodi="http://sodipodi.sourceforge.net/DTD/sodipodi-0.dtd"
   xmlns="http://www.w3.org/2000/svg"
   xmlns:svg="http://www.w3.org/2000/svg">
  <defs
     id="defs6" />
  <sodipodi:namedview
     id="namedview4"
     pagecolor="#ffffff"
     bordercolor="#000000"
     borderopacity="0.25"
     inkscape:showpageshadow="2"
     inkscape:pageopacity="0.0"
     inkscape:pagecheckerboard="0"
     inkscape:deskcolor="#d1d1d1"
     showgrid="false" />
  <g
     inkscape:groupmode="layer"
     inkscape:label="Image"
     id="g8"
     transform="translate(-815.10608,-7.784914)">
    <path
       style="fill:#9c161c;fill-opacity:1;stroke-width:1.00371"
       d="m 1313.9948,806.70982 c -25.093,-1.94802 -43.8007,-4.77784 -66.173,-10.00963 -10.7531,-2.51462 -34.2145,-7.51288 -52.1363,-11.10722 -18.1151,-3.63309 -57.0847,-12.71891 -87.7553,-20.4603 -81.1815,-20.49056 -99.4388,-23.92868 -131.97939,-24.8538 -17.32809,-0.49264 -37.40051,0.67132 -40.10287,2.32547 -0.36294,0.22216 0.20892,2.20605 1.27078,4.40864 4.27181,8.86084 3.41569,17.15662 -2.46302,23.86665 -8.94578,10.21082 -25.55695,9.5444 -31.12551,-1.24871 -2.56117,-4.96411 -3.34278,-15.91331 -1.58509,-22.2048 3.73141,-13.35626 17.77966,-22.16128 41.63694,-26.09679 8.43106,-1.3908 15.31069,-1.55534 44.56079,-1.06581 19.02477,0.3184 35.79297,0.86293 37.26287,1.21007 2.5992,0.61385 2.6954,0.46995 3.5092,-5.24735 1.3051,-9.16992 0.9622,-44.08075 -0.5167,-52.60168 -2.9518,-17.00766 -10.6949,-42.42448 -14.5224,-47.67026 -1.2618,-1.72935 -2.1776,-1.3812 -15.29217,5.81322 -32.37545,17.76064 -73.22569,27.94724 -106.19115,26.48029 -27.24963,-1.2126 -46.44244,-9.96565 -60.57788,-27.6271 -19.6264,-24.52208 -22.28722,-62.55225 -6.25748,-89.43602 10.56344,-17.71618 25.03568,-29.41676 43.77507,-35.39146 10.61639,-3.38484 32.07265,-3.89385 48.12583,-1.14169 30.93131,5.30287 60.74973,16.5665 114.02958,43.07366 l 40.8383,20.31736 28.3426,-29.65409 c 15.5885,-16.30975 28.4461,-29.97002 28.5727,-30.35616 0.1266,-0.38615 -6.8108,-4.31936 -15.4162,-8.74048 -29.4394,-15.1248 -61.7869,-35.80913 -85.076,-54.40125 -15.0928,-12.04882 -39.53205,-36.78069 -49.27226,-49.86219 -24.88067,-33.41575 -35.58347,-65.17612 -34.10907,-101.21808 1.4345,-35.06641 14.00956,-66.81785 40.52086,-102.3132 10.24868,-13.72173 31.73937,-36.16423 30.95887,-32.32995 -0.2813,1.3816 -1.0284,8.164 -1.6604,15.07199 -3.7154,40.61463 8.7428,81.59601 35.9417,118.23013 8.4705,11.40906 32.7977,35.89244 46.2169,46.51394 29.434,23.2973 65.345,43.53702 105.047,59.20526 l 5.2032,2.05344 4.5815,-6.43432 c 5.4521,-7.65703 6.3161,-9.56533 4.3309,-9.56533 -5.8325,0 -65.854,-34.49017 -91.5076,-52.58313 -42.9855,-30.31682 -72.783,-64.4361 -85.2669,-97.63441 -11.5268,-30.65283 -6.7936,-85.1182 10.5647,-121.56629 10.156,-21.325053 31.3634,-45.548531 51.642,-58.986258 50.5277,-33.482616 122.1823,-44.09984681 195.0098,-28.895061 31.1536,6.504191 64.016,19.536581 85.7427,34.003358 15.3553,10.224321 54.1252,43.918146 58.7216,51.033142 1.3957,2.160449 1.5841,2.058399 12.446,-6.740909 18.6372,-15.0982 38.1744,-25.76877 55.1457,-30.118718 29.9068,-7.665476 66.8313,5.96018 88.2649,32.570881 12.043,14.951845 17.4901,30.395205 17.5031,49.624725 0,5.69363 -0.6995,13.60643 -1.5632,17.584 -2.1457,9.8831 -10.9535,27.44174 -19.2515,38.37844 -31.9748,42.14265 -73.8931,39.00596 -117.7499,-8.81108 -20.0583,-21.8696 -28.9253,-30.16719 -36.4545,-34.11333 -3.8979,-2.04292 -8.8609,-3.9934 -11.0288,-4.3344 l -3.9418,-0.61999 -46.6219,54.53444 c -25.6421,29.99395 -47.3998,55.51873 -48.3505,56.72175 l -1.7284,2.18731 12.256,4.23834 c 38.0368,13.15381 84.0206,33.93748 113.5208,51.30883 47.9013,28.20711 91.3566,63.34661 110.937,89.70772 14.6822,19.76647 32.8311,62.21218 36.4834,85.32562 2.4992,15.81514 3.0165,43.95453 1.0787,58.67737 -5.7855,43.95844 -30.0245,104.68259 -58.5076,146.57472 -41.9743,61.73433 -96.5503,96.95706 -162.6553,104.97578 -11.4497,1.38889 -45.6749,1.0959 -67.2019,-0.5753 z m 62.6638,-23.35472 c 44.1884,-6.79625 74.8073,-21.07834 100.2878,-46.77889 22.0658,-22.25629 32.6968,-42.61379 39.146,-74.96125 6.1518,-30.85593 1.8759,-59.75153 -13.6048,-91.93916 -33.0757,-68.77116 -113.906,-129.85988 -238.1058,-179.95203 -9.9168,-3.99959 -18.3566,-7.06992 -18.7555,-6.82294 -0.9718,0.60194 -11.9904,16.66429 -11.6262,16.94799 0.1574,0.12258 5.7004,2.14682 12.3177,4.49831 52.9472,18.81504 108.3351,46.13122 149.8919,73.92358 23.9695,16.03033 37.4143,26.85324 54.2147,43.64248 33.3015,33.27913 49.1461,65.29242 49.2513,99.50979 0.1025,33.33562 -13.9318,64.42675 -44.4791,98.53785 -7.9722,8.90227 -23.7548,23.80758 -32.8684,31.04135 l -4.2599,3.38121 2.6717,-5.28378 c 6.5907,-13.03428 8.4359,-32.41667 4.559,-47.88554 -5.8093,-23.17821 -25.7161,-50.44412 -54.6561,-74.86096 -42.9325,-36.22237 -110.134,-73.72501 -190.9352,-106.55377 l -19.4871,-7.91736 -2.5706,2.35111 c -1.4139,1.29312 -16.5573,14.92593 -33.652,30.29514 -17.0947,15.36922 -32.6129,29.42261 -34.485,31.22975 l -3.4038,3.28571 10.2047,11.25425 c 34.0275,37.52676 55.79,76.8492 66.2904,119.77963 2.7202,11.1211 4.1527,20.85838 5.8008,39.42854 l 0.7109,8.00957 11.5301,3.35064 c 42.999,12.49544 86.2965,21.01725 123.3225,24.2723 17.3808,1.528 57.5703,0.54192 72.69,-1.78352 z m -232.4068,-46.27528 c -2.7679,-69.92442 -44.8046,-134.94243 -114.1948,-176.6246 -11.9733,-7.19227 -26.9761,-15.35588 -28.2653,-15.38022 -0.4891,-0.009 1.112,2.13096 3.558,4.756 25.2283,27.07508 41.4617,84.02369 46.0423,161.52154 0.6206,10.50016 1.2892,19.26195 1.4857,19.47066 0.7187,0.76337 24.0034,5.97786 24.4937,5.48524 0.2783,-0.27955 0.4864,-11.20883 0.4625,-24.28729 -0.036,-19.88145 -0.3997,-25.75533 -2.217,-35.8366 -4.4011,-24.41524 -12.2375,-48.34079 -22.6537,-69.16537 l -5.2826,-10.56112 3.5682,1.84354 c 15.4311,7.97252 32.89,25.24639 44.1882,43.71977 15.3161,25.04291 26.0545,64.4464 26.0545,95.60455 v 9.31955 l 4.2611,1.1071 c 2.3436,0.60889 7.1938,1.92194 10.7782,2.91786 3.5844,0.99593 6.9186,1.57973 7.4095,1.29733 0.4996,-0.28744 0.6367,-6.97274 0.3115,-15.18794 z m -40.9067,-2.56553 c 8.5834,-4.44824 8.2723,-17.9644 -0.5096,-22.14071 -4.0456,-1.92393 -6.7683,-1.92393 -10.8139,0 -8.6705,4.12333 -9.1046,17.523 -0.7159,22.09246 3.4041,1.85421 8.5152,1.87469 12.0394,0.0482 z m 351.7927,-40.24334 c 4.0883,-7.38041 10.0164,-20.89209 12.6145,-28.75165 5.7249,-17.31868 6.9349,-42.95294 2.8139,-59.61521 -6.7141,-27.14703 -20.8495,-50.4681 -45.7488,-75.47845 -27.3047,-27.42657 -63.2836,-51.97605 -110.2793,-75.24697 -30.0353,-14.87264 -69.5196,-31.00473 -97.2963,-39.7524 -7.2646,-2.28781 -32.8591,-12.673 -45.6193,-18.51039 -33.5955,-15.36892 -67.2646,-35.8196 -93.2438,-56.6364 -12.2743,-9.83531 -32.5088,-29.62134 -40.7941,-39.88998 -20.1985,-25.03379 -33.7383,-53.35507 -37.94969,-79.37917 -2.86973,-17.73361 -2.35755,-17.05618 -7.14811,-9.45439 -9.78688,15.53009 -17.50089,33.95984 -20.99044,50.14877 -2.49497,11.57477 -2.54991,34.46668 -0.11021,45.91097 10.53102,49.39943 48.96805,95.65194 116.62175,140.33429 29.5328,19.50519 68.4752,39.87816 100.1502,52.39425 90.931,35.93066 163.6481,76.66116 210.0945,117.6787 30.7878,27.18932 48.9865,57.68098 49.1061,82.27683 l 0.029,6.02879 1.9268,-2.512 c 1.0598,-1.3816 3.6801,-5.67711 5.823,-9.54559 z m -4.7004,-43.06135 c -0.1349,-4.49482 -2.9795,-14.50565 -6.0501,-21.29256 -9.5105,-21.02029 -34.6835,-46.42888 -66.7548,-67.37947 -36.105,-23.58554 -91.2754,-49.10081 -144.955,-67.03903 -17.3565,-5.80004 -33.505,-12.94582 -63.0602,-27.90452 -60.8257,-30.7855 -106.0781,-62.15471 -137.9115,-95.60128 -14.0615,-14.77411 -23.006,-27.21469 -30.5307,-42.46405 -8.94635,-18.13046 -10.53757,-24.77276 -10.47083,-43.70878 0.0502,-14.25444 0.2908,-16.28708 2.83849,-23.9835 1.53099,-4.62499 3.12704,-8.01619 3.54678,-7.53599 0.41974,0.4802 2.00354,4.49038 3.51956,8.91149 3.8461,11.21631 12.2079,27.70654 19.9889,39.41997 38.4176,57.83321 120.1984,112.89962 219.2028,147.59838 38.2753,13.41461 66.3823,25.44974 92.7384,39.70957 68.1019,36.84628 107.0937,76.57419 118.0831,120.31248 1.7727,7.0555 2.1558,11.35626 2.0691,23.22826 -0.058,8.01328 -0.5702,15.92608 -1.1371,17.58399 l -1.0306,3.0144 z m -14.6607,-56.87573 c 3.7574,-4.16095 -1.4067,-10.80018 -6.3418,-8.15326 -4.7694,2.55805 -2.9999,10.12238 2.3679,10.12238 1.2077,0 2.9959,-0.88611 3.9739,-1.96912 z m -24.5065,-32.2337 c 2.833,-5.305 -0.7921,-12.01797 -6.4898,-12.01797 -6.064,0 -9.6701,5.00949 -7.5774,10.52595 2.0309,5.35289 11.4707,6.35412 14.0672,1.49202 z m -35.3635,-23.59527 c 4.3656,-5.03532 2.2075,-13.08753 -4.1576,-15.5128 -7.5952,-2.89397 -15.5316,6.72863 -11.6086,14.07491 2.8536,5.34345 11.682,6.1486 15.7662,1.43789 z m -41.7824,-22.50859 c 3.8414,-3.84972 3.9668,-8.73721 0.3351,-13.06259 -5.4683,-6.5128 -16.4541,-2.20362 -16.4541,6.4541 0,2.71811 0.7609,4.434 2.9307,6.60849 2.1698,2.17449 3.8819,2.93711 6.5942,2.93711 2.7122,0 4.4243,-0.76262 6.5941,-2.93711 z m -47.9402,-17.86954 c 3.4849,-3.10883 5.0143,-8.00333 3.7245,-11.9198 -3.7819,-11.48419 -20.9396,-9.1161 -21.0095,2.89971 -0.028,4.86667 1.2932,7.31571 5.3055,9.83255 3.7279,2.33847 8.8357,1.99205 11.9795,-0.81246 z m -46.6726,-18.34602 c 5.7114,-3.48994 6.0863,-11.76325 0.7743,-17.08676 -1.9711,-1.97541 -3.5538,-2.54135 -7.1071,-2.54135 -3.8962,0 -5.0033,0.48458 -7.4969,3.28145 -2.2693,2.54535 -2.9206,4.23583 -2.9033,7.536 0.047,8.98245 8.8589,13.62223 16.733,8.81066 z m -47.235,-22.54203 c 3.6074,-3.61522 4.314,-7.12957 2.4313,-12.0922 -1.1346,-2.99069 -6.5087,-6.58787 -9.8504,-6.59332 -3.5768,-0.006 -8.033,2.74442 -9.7087,5.99216 -2.0441,3.96133 -1.9096,6.91771 0.4944,10.86921 3.8205,6.27996 11.362,7.10701 16.6334,1.82415 z m -43.2129,-20.83719 c 2.4775,-2.40093 3.0078,-3.7229 3.0078,-7.49943 0,-3.90863 -0.4828,-5.01705 -3.2743,-7.51667 -7.2944,-6.53165 -18.2911,-1.83681 -18.2783,7.80356 0.01,4.30639 3.4279,9.14175 7.2271,10.21113 4.5511,1.28108 7.7855,0.42413 11.3177,-2.99859 z m -43.2975,-22.08488 c 10.9845,-5.62975 3.9164,-23.45164 -7.5658,-19.07664 -6.337,2.41454 -8.9772,10.59007 -5.1763,16.02842 2.7095,3.87684 8.4472,5.24942 12.7421,3.04822 z m -36.4728,-26.83842 c 3.6846,-1.98039 7.0802,-7.26028 7.0802,-11.00938 0,-3.22708 -2.4637,-7.68055 -5.6296,-10.17625 -3.1881,-2.51324 -9.2151,-2.77044 -13.4531,-0.57411 -8.3639,4.33453 -7.5418,18.2514 1.3058,22.10607 4.3665,1.90234 6.6505,1.82839 10.6967,-0.34633 z m -30.4726,-34.79348 c 1.3536,-1.35648 2.4611,-3.63783 2.4611,-5.06967 0,-3.00081 -4.0621,-7.536 -6.7498,-7.536 -2.5194,0 -6.2662,2.79014 -7.2213,5.37751 -1.6475,4.46346 2.0936,9.43173 7.2489,9.62648 0.9901,0.0374 2.9076,-1.04184 4.2611,-2.39832 z m -24.8604,-38.00467 c 3.0948,-2.39984 -0.023,-8.76418 -4.2937,-8.76418 -4.5363,0 -6.3747,5.22539 -3.0208,8.58646 2.4114,2.41675 4.3659,2.46423 7.3145,0.17772 z m 87.2281,376.52152 c 3.1845,-3.62667 2.9318,-7.96311 -0.6749,-11.57754 -5.0409,-5.05185 -13.1027,-2.80437 -14.61,4.07296 -1.964,8.96172 9.1946,14.44041 15.2849,7.50458 z m -13.3549,-39.83923 c 1.3165,-1.88371 1.3453,-2.52111 0.1926,-4.2704 -1.9385,-2.94188 -5.1341,-3.11544 -7.044,-0.3826 -1.9863,2.84196 -1.9885,3.3206 -0.025,5.28822 2.219,2.22385 5.0619,1.96124 6.8767,-0.63522 z m 461.6312,-18.6354 c 15.5599,-31.20275 22.7037,-60.88997 22.5468,-93.69756 -0.1009,-21.09834 -2.3574,-35.49303 -8.4057,-53.62244 -16.1796,-48.4969 -56.508,-94.54668 -120.5039,-137.59982 -43.997,-29.59893 -68.7183,-41.30048 -150.0095,-71.00534 -18.3892,-6.71969 -41.3994,-15.38627 -51.1337,-19.25906 -22.0622,-8.77753 -56.1635,-25.50878 -71.211,-34.93857 -34.9463,-21.89969 -63.6378,-50.05305 -80.6446,-79.13179 -6.3322,-10.82702 -9.0111,-18.49294 -9.1252,-26.11303 -0.068,-4.57742 -0.396,-5.93546 -1.2596,-5.22391 -2.1757,1.79249 -13.287,25.42614 -16.2294,34.51971 -9.7054,29.99445 -7.7849,59.50544 5.6231,86.41277 27.3156,54.81674 102.0662,104.75724 204.2766,136.47626 83.6121,25.94739 148.9172,63.2037 196.0182,111.82771 6.8963,7.11915 15.6213,16.78728 19.3891,21.48472 32.1704,40.10779 54.3485,92.82562 55.125,131.03337 0.096,4.7465 0.2842,8.63085 0.417,8.63189 0.1328,10e-4 2.4399,-4.40667 5.1268,-9.79491 z m -6.3013,-78.93545 c -6.3416,-19.69438 -23.5052,-49.95678 -40.2858,-71.03089 -9.6472,-12.11554 -37.0341,-39.15725 -49.8636,-49.23518 -34.7402,-27.28918 -71.4258,-48.13047 -116.9615,-66.44631 -12.1949,-4.90514 -36.7191,-13.24453 -68.1783,-23.18386 -16.9903,-5.36797 -51.0395,-20.05239 -72.8159,-31.40334 -64.4581,-33.5989 -103.1418,-74.47003 -112.0536,-118.39006 -1.989,-9.80232 -2.973,-27.76542 -1.8836,-34.38433 l 0.8269,-5.02399 3.713,9.54559 c 12.3698,31.80076 36.6862,59.20811 71.5518,80.64685 21.4797,13.20788 46.2699,24.11742 121.6902,53.55286 83.6616,32.65192 112.0032,45.30559 148.3347,66.22709 60.7739,34.9967 96.7505,75.20536 112.7302,125.99082 5.9114,18.78693 6.762,25.10169 6.7064,49.78515 -0.027,12.10601 -0.1672,22.11528 -0.3111,22.24285 -0.1438,0.12756 -1.5838,-3.87439 -3.1998,-8.89325 z m -12.5365,-53.98465 c 2.9008,-1.5558 2.5722,-6.53637 -0.5672,-8.59785 -2.322,-1.52469 -2.6912,-1.52469 -5.0131,0 -2.8906,1.89807 -3.2435,5.14698 -0.8472,7.80049 1.8827,2.08489 3.6242,2.30094 6.4275,0.79736 z m -21.1925,-34.08943 c 0.991,-0.53152 2.3685,-2.3375 3.0611,-4.01327 3.283,-7.94315 -9.3195,-13.29966 -12.8776,-5.47344 -1.6767,3.68785 -1.42,5.24069 1.3202,7.98677 2.5914,2.59713 5.4949,3.1097 8.4963,1.49994 z m -32.9949,-34.71439 c 5.8468,-3.03007 6.8115,-9.87693 2.0623,-14.63648 -8.4279,-8.4462 -21.0863,3.50626 -13.2432,12.50468 3.1949,3.66568 6.8693,4.36624 11.1809,2.1318 z m -37.1426,-30.11778 c 2.2928,-1.42011 4.2077,-6.82195 3.5894,-10.1253 -1.312,-7.00861 -10.9485,-10.9859 -16.2299,-6.69856 -4.6859,3.80394 -5.5515,8.83909 -2.4077,14.00621 2.8444,4.67516 9.9125,5.9986 15.0482,2.81765 z m -45.8016,-24.64911 c 6.0145,-4.74119 5.2982,-14.15084 -1.3389,-17.59047 -11.3883,-5.90195 -21.0518,11.1224 -10.1578,17.89544 3.643,2.26499 8.3966,2.13889 11.4967,-0.30497 z m -45.2781,-24.72983 c 3.4059,-3.27015 4.2809,-6.65457 2.8464,-11.0103 -1.4457,-4.38992 -5.383,-7.45054 -9.5848,-7.45054 -7.0503,0 -11.4421,4.33026 -11.4421,11.28172 0,9.27102 11.3385,13.74838 18.1805,7.17912 z m -48.6602,-17.85796 c 2.7471,-2.75304 3.409,-4.20119 3.409,-7.4589 0,-11.79371 -16.1976,-15.30277 -20.7073,-4.48605 -3.1288,7.50455 2.2496,15.34825 10.5306,15.35751 2.4859,0.003 4.2446,-0.88405 6.7677,-3.41256 z m -47.4741,-17.63829 c 4.1089,-4.60821 3.8615,-10.19323 -0.6517,-14.71626 -2.5231,-2.52851 -4.2818,-3.41534 -6.7677,-3.41256 -8.2511,0.009 -13.842,8.11116 -10.4869,15.19681 3.5592,7.51682 12.5113,8.98266 17.9063,2.93201 z m -43.2449,-18.74249 c 4.1622,-3.77487 3.2156,-12.70005 -1.6886,-15.9203 -8.9847,-5.8998 -20.2511,5.11338 -14.5579,14.23077 3.2867,5.26356 11.3781,6.10501 16.2465,1.68953 z m -35.4173,-16.95374 c 6.1511,-5.18702 6.6478,-13.00457 1.1748,-18.48948 -7.5303,-7.54667 -19.5646,-3.32197 -20.7579,7.28709 -0.5772,5.13173 2.024,10.54577 5.9863,12.45972 4.2094,2.03332 10.3702,1.46362 13.5968,-1.25733 z m -38.9667,-29.62353 c 2.7705,-1.48601 4.4926,-6.43527 3.128,-8.99043 -2.838,-5.31455 -9.4737,-6.24233 -12.6048,-1.76238 -2.168,3.10198 -1.8129,6.45351 0.9804,9.25288 2.5915,2.59712 5.495,3.10969 8.4964,1.49993 z m -25.825,-28.83092 c 2.5958,-2.35419 2.308,-6.01763 -0.6239,-7.94283 -2.9995,-1.96968 -6.1913,-1.1422 -7.2126,1.86996 -0.999,2.94577 -0.5614,4.95816 1.4088,6.4798 2.2093,1.70635 4.2394,1.57783 6.4277,-0.40693 z M 921.96981,619.03538 c 11.92241,-2.6084 31.18206,-8.86479 60.6586,-19.70463 22.85499,-8.4048 21.06059,-7.11623 18.09029,-12.99046 -5.8946,-11.65776 -27.55188,-36.52158 -41.15058,-47.24329 -19.10339,-15.0618 -37.70588,-21.11632 -60.96357,-19.84165 -14.06016,0.77058 -21.97382,2.67366 -32.67895,7.85868 -9.1602,4.43672 -16.62093,11.00174 -19.96239,17.56577 -4.82438,9.4771 -6.70966,18.35052 -6.70966,31.58005 0,12.53067 0.0243,12.66208 3.72815,20.1719 6.23621,12.6443 15.92279,20.58062 29.85966,24.46432 8.5472,2.38181 34.17313,1.41125 49.12845,-1.86069 z M 1307.4777,241.47946 c 18.6228,-20.76441 35.5253,-43.1277 41.5029,-54.91144 l 2.1804,-4.29832 -2.0555,-4.65682 c -2.6294,-5.95706 -18.1204,-30.20884 -28.9723,-45.35732 -22.8827,-31.94256 -47.7795,-54.223598 -76.8232,-68.752016 -20.8744,-10.441864 -37.038,-14.274388 -60.1573,-14.263839 -18.0373,0.0082 -27.3936,1.843143 -39.6036,7.766815 -8.9022,4.31896 -19.7028,15.118748 -23.8368,23.835133 -4.4271,9.334307 -8.3102,23.357577 -8.9678,32.385327 l -0.5659,7.76861 5.1445,10.31779 c 6.6946,13.42643 13.0533,21.89027 26.6507,35.47401 17.415,17.39745 34.5531,29.38811 71.7588,50.20599 45.4887,25.45247 67.6002,35.45375 78.7058,35.59949 l 5.0131,0.0658 10.0262,-11.17919 z m 245.6169,-41.24683 c 25.7806,-6.62812 42.2728,-36.45056 36.1556,-65.37957 -6.0451,-28.58828 -27.8536,-43.197241 -62.1984,-41.665304 -22.1349,0.987317 -30.1434,3.838074 -55.7394,19.841704 -8.8259,5.51824 -23.1682,16.34156 -26.3045,19.85053 -2.0653,2.31071 -3.1915,1.33559 25.2826,21.89107 6.8308,4.93113 18.6932,14.94815 26.3609,22.26004 18.2946,17.44559 25.2184,22.10778 36.1853,24.36559 4.6794,0.96339 14.0853,0.42292 20.2579,-1.16406 z m -23.3661,-25.46198 c -8.324,-4.21056 -19.054,-13.70166 -22.8725,-20.23162 -3.938,-6.73427 -2.3702,-6.96728 2.8495,-0.4235 10.5587,13.23712 23.8531,14.55632 31.6092,3.13655 3.5176,-5.17908 3.854,-9.28263 1.2098,-14.75682 -6.638,-13.74194 -18.629,-18.56566 -40.892,-16.44989 -5.8713,0.55799 -13.1376,1.01489 -16.1474,1.01535 l -5.4723,8.5e-4 8.9814,-5.16556 c 9.6685,-5.56063 18.989,-9.13888 29.8516,-11.46044 9.3487,-1.99801 16.318,-1.83239 24.0869,0.5724 16.5868,5.13429 27.5557,24.55684 24.5843,43.53163 -2.2193,14.17298 -10.8044,22.45437 -24.3461,23.48498 -5.5099,0.41934 -6.7961,0.10802 -13.4424,-3.25393 z m -149.3273,-20.50582 3.7425,-3.46213 -4.401,-8.29114 c -10.6896,-20.13785 -27.5739,-42.25633 -51.9825,-68.096846 l -13.1884,-13.962063 4.7628,0.715789 c 20.4692,3.076204 47.1582,20.692723 76.4506,50.46233 l 13.1109,13.32448 6.1896,-6.25867 c 3.4042,-3.44227 6.1896,-6.74011 6.1896,-7.32853 0,-1.69259 -20.7843,-21.447349 -29.076,-27.63584 -35.7494,-26.681137 -88.6896,-44.926995 -131.8448,-45.440362 -21.1248,-0.251297 -23.8141,1.832567 -8.9442,6.930701 21.2,7.268461 39.4942,19.454189 60.1901,40.092492 19.4549,19.400759 35.4831,40.616069 51.5105,68.180539 l 6.3144,10.85964 3.6167,-3.31413 c 1.9891,-1.82277 5.3007,-4.87209 7.3592,-6.77626 z m 9.7211,-21.6397 c 4.6043,-2.38612 5.384,-6.64833 2.0042,-10.95445 -4.0982,-5.22135 -12.9613,-1.91721 -12.9613,4.83195 0,2.51895 1.6412,4.85877 4.5118,6.43226 2.6365,1.44522 3.1021,1.42284 6.4453,-0.30976 z m -18.7233,-24.90596 c 2.8068,-2.14872 3.2075,-6.32701 0.8347,-8.704922 -3.8669,-3.875291 -10.1131,-1.554496 -10.1131,3.757532 0,5.04243 5.3958,7.91959 9.2784,4.94739 z"
       id="path849" />
  </g>
</svg>
