<svg width="87" height="87" viewBox="0 0 87 87" fill="none" xmlns="http://www.w3.org/2000/svg">
<g clip-path="url(#clip0_316_425)">
<path d="M54.2767 86.8415C51.5467 86.6298 49.5114 86.3222 47.0774 85.7535C45.9075 85.4801 43.3551 84.9368 41.4053 84.5461C39.4344 84.1512 35.1947 83.1636 31.8579 82.3222C23.0257 80.0949 21.0394 79.7212 17.4992 79.6206C15.614 79.567 13.4302 79.6936 13.1362 79.8734C13.0967 79.8975 13.1589 80.1132 13.2744 80.3526C13.7392 81.3157 13.6461 82.2175 13.0065 82.9468C12.0332 84.0567 10.226 83.9843 9.62017 82.8111C9.34153 82.2715 9.2565 81.0814 9.44773 80.3975C9.85368 78.9457 11.3821 77.9886 13.9776 77.5608C14.8949 77.4096 15.6433 77.3918 18.8256 77.445C20.8954 77.4796 22.7197 77.5388 22.8796 77.5765C23.1624 77.6432 23.1729 77.6276 23.2614 77.0061C23.4034 76.0094 23.3661 72.2146 23.2052 71.2884C22.8841 69.4397 22.0417 66.677 21.6252 66.1068C21.488 65.9188 21.3883 65.9566 19.9615 66.7386C16.4392 68.6692 11.9949 69.7765 8.40844 69.617C5.44381 69.4852 3.35573 68.5338 1.81786 66.614C-0.317395 63.9485 -0.606876 59.8147 1.13708 56.8925C2.28633 54.9668 3.86084 53.6949 5.8996 53.0455C7.05461 52.6776 9.38894 52.6223 11.1355 52.9214C14.5006 53.4978 17.7447 54.7222 23.5413 57.6034L27.9843 59.8119L31.0679 56.5885C32.7638 54.8157 34.1627 53.3309 34.1764 53.2889C34.1902 53.2469 33.4354 52.8194 32.4992 52.3388C29.2964 50.6948 25.7771 48.4464 23.2434 46.4255C21.6013 45.1158 18.9425 42.4275 17.8828 41.0056C15.1759 37.3734 14.0115 33.9211 14.1719 30.0034C14.328 26.1917 15.6961 22.7404 18.5804 18.8822C19.6954 17.3906 22.0334 14.9512 21.9485 15.368C21.9179 15.5181 21.8367 16.2554 21.7679 17.0063C21.3637 21.421 22.7191 25.8756 25.6782 29.8576C26.5997 31.0978 29.2464 33.7591 30.7063 34.9136C33.9086 37.446 37.8156 39.646 42.1349 41.3491L42.701 41.5723L43.1995 40.8729C43.7926 40.0406 43.8866 39.8332 43.6707 39.8332C43.0361 39.8332 36.5061 36.0842 33.7151 34.1175C29.0385 30.8221 25.7966 27.1134 24.4384 23.5048C23.1844 20.1729 23.6993 14.2527 25.5878 10.2908C26.6928 7.97283 29 5.33979 31.2062 3.87913C36.7034 0.239641 44.4991 -0.91443 52.4224 0.738299C55.8117 1.44529 59.387 2.86189 61.7507 4.43439C63.4213 5.54576 67.6393 9.20821 68.1394 9.98159C68.2912 10.2164 68.3117 10.2053 69.4934 9.24887C71.5211 7.60773 73.6466 6.44786 75.493 5.97503C78.7467 5.1418 82.7639 6.62289 85.0958 9.51541C86.406 11.1406 86.9986 12.8193 87.0001 14.9095C87.0001 15.5284 86.924 16.3885 86.83 16.8209C86.5966 17.8951 85.6383 19.8037 84.7355 20.9925C81.2568 25.5733 76.6963 25.2324 71.9249 20.0348C69.7427 17.6576 68.778 16.7557 67.9588 16.3267C67.5348 16.1047 66.9948 15.8927 66.759 15.8556L66.3301 15.7882L61.2579 21.716C58.4681 24.9763 56.101 27.7507 55.9976 27.8815L55.8095 28.1193L57.1429 28.58C61.2811 30.0098 66.284 32.2689 69.4934 34.1571C74.7049 37.2232 79.4326 41.0428 81.5628 43.9082C83.1602 46.0568 85.1347 50.6705 85.5321 53.1829C85.804 54.902 85.8602 57.9607 85.6494 59.561C85.02 64.3392 82.3829 70.9398 79.2841 75.4934C74.7175 82.2038 68.7799 86.0324 61.588 86.904C60.3423 87.055 56.6188 87.0232 54.2767 86.8415ZM61.0942 84.3029C65.9017 83.5642 69.2329 82.0117 72.0051 79.2181C74.4057 76.7989 75.5623 74.5861 76.264 71.07C76.9333 67.716 76.468 64.5751 74.7838 61.0764C71.1853 53.6011 62.3914 46.9609 48.8791 41.516C47.8002 41.0812 46.882 40.7475 46.8386 40.7743C46.7328 40.8398 45.5341 42.5857 45.5737 42.6165C45.5908 42.6299 46.1939 42.8499 46.9138 43.1055C52.6742 45.1507 58.7001 48.1199 63.2213 51.1408C65.8291 52.8833 67.2918 54.0597 69.1196 55.8847C72.7427 59.5021 74.4665 62.9818 74.4779 66.7012C74.4891 70.3247 72.9622 73.7043 69.6388 77.4121C68.7715 78.3797 67.0544 79.9999 66.0629 80.7862L65.5994 81.1537L65.8901 80.5794C66.6071 79.1626 66.8079 77.0558 66.3861 75.3743C65.7541 72.8549 63.5883 69.8912 60.4398 67.2371C55.7689 63.2998 48.4577 59.2233 39.6669 55.6549L37.5468 54.7943L37.2672 55.0499C37.1133 55.1904 35.4658 56.6723 33.606 58.3429C31.7462 60.0135 30.0579 61.5411 29.8542 61.7375L29.4839 62.0947L30.5941 63.318C34.2961 67.397 36.6638 71.6713 37.8062 76.3378C38.1021 77.5466 38.258 78.605 38.4373 80.6236L38.5146 81.4942L39.769 81.8584C44.4471 83.2166 49.1577 84.1429 53.1859 84.4968C55.0769 84.6628 59.4493 84.5557 61.0942 84.3029ZM35.8095 79.2729C35.5084 71.6722 30.935 64.6049 23.3857 60.0741C22.083 59.2923 20.4508 58.405 20.3105 58.4023C20.2573 58.4014 20.4315 58.634 20.6976 58.9193C23.4424 61.8623 25.2085 68.0525 25.7068 76.4764C25.7743 77.6177 25.8471 78.5701 25.8685 78.5928C25.9466 78.6758 28.4799 79.2426 28.5333 79.189C28.5635 79.1586 28.5862 77.9706 28.5836 76.549C28.5796 74.388 28.5401 73.7495 28.3424 72.6537C27.8636 69.9998 27.011 67.3991 25.8778 65.1355L25.303 63.9876L25.6912 64.188C27.3701 65.0546 29.2695 66.9322 30.4987 68.9402C32.165 71.6623 33.3333 75.9454 33.3333 79.3322V80.3452L33.7969 80.4656C34.0519 80.5318 34.5795 80.6745 34.9695 80.7827C35.3595 80.891 35.7222 80.9545 35.7756 80.9238C35.83 80.8925 35.8449 80.1658 35.8095 79.2729ZM31.3591 78.994C32.2929 78.5105 32.259 77.0413 31.3036 76.5873C30.8635 76.3782 30.5673 76.3782 30.1271 76.5873C29.1838 77.0355 29.1366 78.4921 30.0492 78.9888C30.4196 79.1903 30.9756 79.1925 31.3591 78.994ZM69.6324 74.6196C70.0772 73.8174 70.7221 72.3487 71.0048 71.4944C71.6276 69.6119 71.7593 66.8255 71.3109 65.0143C70.5805 62.0635 69.0426 59.5286 66.3337 56.81C63.3631 53.8288 59.4487 51.1603 54.3358 48.6308C51.0681 47.0142 46.7724 45.2606 43.7505 44.3098C42.9601 44.0611 40.1756 42.9323 38.7873 42.2977C35.1323 40.6272 31.4692 38.4042 28.6428 36.1415C27.3074 35.0724 25.106 32.9217 24.2046 31.8055C22.0071 29.0844 20.5341 26.0059 20.0759 23.1772C19.7637 21.2496 19.8194 21.3232 19.2982 22.1495C18.2335 23.8376 17.3942 25.8409 17.0146 27.6006C16.7431 28.8587 16.7371 31.347 17.0026 32.591C18.1483 37.9606 22.3301 42.9882 29.6905 47.845C32.9035 49.9652 37.1402 52.1797 40.5863 53.5402C50.4792 57.4458 58.3904 61.8731 63.4436 66.3316C66.7931 69.287 68.7731 72.6014 68.7861 75.2749L68.7892 75.9303L68.9988 75.6572C69.1142 75.507 69.3993 75.0401 69.6324 74.6196ZM69.121 69.9389C69.1063 69.4504 68.7969 68.3622 68.4628 67.6245C67.4281 65.3396 64.6894 62.5778 61.2002 60.3005C57.2721 57.7368 51.2699 54.9633 45.4298 53.0135C43.5415 52.383 41.7846 51.6063 38.5692 49.9803C31.9516 46.634 27.0284 43.2242 23.5651 39.5886C22.0352 37.9827 21.0621 36.6305 20.2435 34.9729C19.2701 33.0021 19.097 32.2801 19.1043 30.2218C19.1098 28.6724 19.1359 28.4515 19.4131 27.6149C19.5797 27.1121 19.7533 26.7435 19.799 26.7957C19.8446 26.8479 20.0169 27.2838 20.1819 27.7644C20.6003 28.9836 21.51 30.776 22.3566 32.0493C26.5362 38.3356 35.4336 44.3212 46.2048 48.0929C50.3689 49.551 53.4268 50.8592 56.2943 52.4093C63.7034 56.4144 67.9455 60.7327 69.1411 65.487C69.334 66.2539 69.3757 66.7214 69.3662 68.0118C69.3599 68.8829 69.3042 69.743 69.2425 69.9232L69.1304 70.2508L69.121 69.9389ZM67.526 63.7567C67.9348 63.3044 67.373 62.5827 66.8361 62.8704C66.3172 63.1485 66.5097 63.9707 67.0937 63.9707C67.2251 63.9707 67.4196 63.8744 67.526 63.7567ZM64.8598 60.2529C65.168 59.6763 64.7736 58.9466 64.1538 58.9466C63.494 58.9466 63.1017 59.4911 63.3294 60.0908C63.5503 60.6726 64.5773 60.7814 64.8598 60.2529ZM61.0124 57.6882C61.4874 57.1408 61.2526 56.2656 60.5601 56.002C59.7338 55.6874 58.8704 56.7334 59.2972 57.5319C59.6076 58.1127 60.5681 58.2002 61.0124 57.6882ZM56.4667 55.2415C56.8846 54.8231 56.8983 54.2918 56.5032 53.8217C55.9082 53.1137 54.713 53.5821 54.713 54.5232C54.713 54.8187 54.7958 55.0052 55.0319 55.2415C55.268 55.4779 55.4542 55.5608 55.7493 55.5608C56.0444 55.5608 56.2307 55.4779 56.4667 55.2415ZM51.2511 53.2992C51.6302 52.9612 51.7966 52.4292 51.6563 52.0035C51.2448 50.7552 49.3781 51.0126 49.3705 52.3187C49.3675 52.8477 49.5112 53.1139 49.9477 53.3875C50.3533 53.6417 50.909 53.604 51.2511 53.2992ZM46.1733 51.305C46.7947 50.9256 46.8355 50.0263 46.2575 49.4477C46.0431 49.233 45.8709 49.1714 45.4843 49.1714C45.0604 49.1714 44.94 49.2241 44.6687 49.5281C44.4218 49.8048 44.3509 49.9886 44.3528 50.3473C44.3579 51.3237 45.3166 51.828 46.1733 51.305ZM41.0344 48.8547C41.4268 48.4617 41.5037 48.0797 41.2989 47.5403C41.1754 47.2152 40.5908 46.8242 40.2272 46.8236C39.8381 46.823 39.3532 47.1219 39.1709 47.475C38.9486 47.9056 38.9632 48.2269 39.2247 48.6564C39.6404 49.339 40.4609 49.4289 41.0344 48.8547ZM36.333 46.5897C36.6026 46.3288 36.6602 46.1851 36.6602 45.7746C36.6602 45.3497 36.6077 45.2292 36.304 44.9575C35.5104 44.2476 34.314 44.7579 34.3154 45.8058C34.3165 46.2739 34.6884 46.7994 35.1017 46.9157C35.5968 47.0549 35.9487 46.9618 36.333 46.5897ZM31.6225 44.1892C32.8175 43.5772 32.0485 41.64 30.7993 42.1156C30.1099 42.378 29.8227 43.2667 30.2362 43.8578C30.531 44.2792 31.1552 44.4284 31.6225 44.1892ZM27.6544 41.2719C28.0553 41.0566 28.4247 40.4827 28.4247 40.0752C28.4247 39.7244 28.1566 39.2403 27.8122 38.9691C27.4654 38.6959 26.8097 38.6679 26.3486 38.9066C25.4386 39.3778 25.5281 40.8905 26.4906 41.3095C26.9657 41.5163 27.2142 41.5083 27.6544 41.2719ZM24.3391 37.4899C24.4864 37.3425 24.6069 37.0945 24.6069 36.9388C24.6069 36.6127 24.1649 36.1197 23.8725 36.1197C23.5984 36.1197 23.1908 36.423 23.0869 36.7042C22.9076 37.1894 23.3147 37.7294 23.8755 37.7506C23.9832 37.7547 24.1919 37.6374 24.3391 37.4899ZM21.6344 33.3589C21.9711 33.098 21.6319 32.4062 21.1673 32.4062C20.6738 32.4062 20.4738 32.9742 20.8387 33.3396C21.101 33.6023 21.3136 33.6074 21.6344 33.3589ZM31.1244 74.286C31.4709 73.8918 31.4434 73.4204 31.051 73.0275C30.5026 72.4784 29.6255 72.7227 29.4615 73.4703C29.2478 74.4444 30.4618 75.0399 31.1244 74.286ZM29.6715 69.9556C29.8147 69.7508 29.8178 69.6815 29.6924 69.4914C29.4815 69.1716 29.1339 69.1527 28.9261 69.4498C28.71 69.7587 28.7097 69.8107 28.9234 70.0246C29.1648 70.2663 29.474 70.2378 29.6715 69.9556ZM79.8947 67.9299C81.5875 64.5382 82.3648 61.3113 82.3477 57.7452C82.3367 55.4518 82.0912 53.8872 81.4332 51.9165C79.6729 46.645 75.2854 41.6395 68.323 36.9597C63.5363 33.7424 60.8467 32.4704 52.0026 29.2416C50.002 28.5112 47.4986 27.5691 46.4396 27.1482C44.0393 26.1941 40.3292 24.3754 38.6921 23.3504C34.8901 20.97 31.7687 17.9097 29.9184 14.749C29.2295 13.5721 28.938 12.7388 28.9256 11.9105C28.9182 11.413 28.8825 11.2653 28.7886 11.3427C28.5519 11.5375 27.343 14.1065 27.0229 15.0949C25.967 18.3552 26.1759 21.563 27.6347 24.4878C30.6065 30.4463 38.739 35.8747 49.859 39.3225C58.9556 42.1429 66.0604 46.1926 71.1848 51.4779C71.9351 52.2518 72.8843 53.3027 73.2942 53.8133C76.7942 58.1729 79.2071 63.9032 79.2916 68.0563C79.302 68.5723 79.3225 68.9945 79.3369 68.9946C79.3514 68.9947 79.6024 68.5156 79.8947 67.9299ZM79.2092 59.3498C78.5192 57.2091 76.6519 53.9196 74.8263 51.6289C73.7767 50.312 70.7971 47.3726 69.4013 46.2771C65.6218 43.3108 61.6306 41.0454 56.6765 39.0545C55.3498 38.5214 52.6816 37.6149 49.259 36.5345C47.4106 35.951 43.7062 34.3549 41.337 33.121C34.3243 29.4689 30.1157 25.0263 29.1461 20.2523C28.9297 19.1868 28.8227 17.2342 28.9412 16.5148L29.0312 15.9687L29.4351 17.0063C30.7809 20.4629 33.4264 23.4421 37.2196 25.7724C39.5565 27.2081 42.2535 28.3939 50.4589 31.5935C59.5609 35.1427 62.6443 36.5181 66.597 38.7922C73.2089 42.5963 77.123 46.9669 78.8615 52.4872C79.5046 54.5293 79.5972 55.2157 79.5911 57.8987C79.5882 59.2146 79.5729 60.3026 79.5573 60.3165C79.5416 60.3303 79.385 59.8953 79.2092 59.3498ZM77.8453 53.4818C78.1608 53.3127 78.1251 52.7713 77.7835 52.5472C77.5309 52.3815 77.4908 52.3815 77.2381 52.5472C76.9237 52.7535 76.8853 53.1067 77.146 53.3951C77.3508 53.6217 77.5403 53.6452 77.8453 53.4818ZM75.5396 49.7763C75.6474 49.7186 75.7973 49.5222 75.8726 49.3401C76.2298 48.4767 74.8587 47.8944 74.4716 48.7451C74.2892 49.146 74.3171 49.3148 74.6152 49.6133C74.8972 49.8956 75.2131 49.9513 75.5396 49.7763ZM71.9499 46.0029C72.586 45.6736 72.691 44.9293 72.1743 44.412C71.2574 43.4939 69.8802 44.7931 70.7335 45.7712C71.0811 46.1697 71.4808 46.2458 71.9499 46.0029ZM67.909 42.7292C68.1584 42.5748 68.3668 41.9877 68.2995 41.6286C68.1568 40.8668 67.1084 40.4345 66.5338 40.9005C66.024 41.314 65.9298 41.8613 66.2718 42.4229C66.5813 42.9311 67.3502 43.075 67.909 42.7292ZM62.926 40.0499C63.5803 39.5345 63.5024 38.5117 62.7803 38.1378C61.5413 37.4963 60.49 39.3468 61.6752 40.083C62.0716 40.3292 62.5887 40.3155 62.926 40.0499ZM58 37.3618C58.3705 37.0064 58.4657 36.6385 58.3096 36.165C58.1523 35.6878 57.724 35.3552 57.2668 35.3552C56.4998 35.3552 56.022 35.8258 56.022 36.5815C56.022 37.5892 57.2556 38.0759 58 37.3618ZM52.706 35.4207C53.0048 35.1214 53.0768 34.964 53.0768 34.6099C53.0768 33.328 51.3146 32.9465 50.824 34.1223C50.4836 34.938 51.0687 35.7906 51.9697 35.7916C52.2401 35.792 52.4315 35.6955 52.706 35.4207ZM47.541 33.5034C47.988 33.0025 47.9611 32.3955 47.4701 31.9038C47.1956 31.629 47.0043 31.5326 46.7338 31.5329C45.8361 31.5339 45.2279 32.4145 45.5929 33.1847C45.9801 34.0018 46.9541 34.1611 47.541 33.5034ZM42.8362 31.4662C43.289 31.0559 43.186 30.0857 42.6525 29.7357C41.675 29.0944 40.4492 30.2915 41.0686 31.2825C41.4262 31.8547 42.3065 31.9461 42.8362 31.4662ZM38.9829 29.6233C39.6521 29.0595 39.7062 28.2098 39.1108 27.6136C38.2915 26.7933 36.9822 27.2525 36.8524 28.4057C36.7896 28.9635 37.0726 29.552 37.5037 29.76C37.9616 29.981 38.6319 29.9191 38.9829 29.6233ZM34.7436 26.4033C35.045 26.2418 35.2323 25.7038 35.0839 25.4261C34.7751 24.8484 34.0532 24.7476 33.7125 25.2345C33.4767 25.5717 33.5153 25.936 33.8192 26.2403C34.1011 26.5226 34.417 26.5783 34.7436 26.4033ZM31.9339 23.2695C32.2163 23.0136 32.185 22.6154 31.866 22.4061C31.5397 22.192 31.1925 22.2819 31.0813 22.6094C30.9727 22.9295 31.0203 23.1483 31.2346 23.3137C31.475 23.4992 31.6959 23.4852 31.9339 23.2695ZM11.6263 66.4417C12.9234 66.1581 15.0188 65.4781 18.2257 64.2998C20.7122 63.3862 20.517 63.5263 20.1938 62.8878C19.5525 61.6206 17.1963 58.918 15.7168 57.7525C13.6385 56.1153 11.6146 55.4572 9.08429 55.5958C7.55461 55.6796 6.69364 55.8864 5.52898 56.45C4.53239 56.9323 3.7207 57.6459 3.35716 58.3594C2.83229 59.3895 2.62719 60.354 2.62719 61.7921C2.62719 63.1541 2.62983 63.1684 3.03279 63.9847C3.71126 65.3591 4.76511 66.2218 6.28138 66.6439C7.21127 66.9028 9.99924 66.7973 11.6263 66.4417ZM53.5677 25.4021C55.5938 23.1451 57.4327 20.7142 58.083 19.4334L58.3202 18.9661L58.0966 18.46C57.8105 17.8124 56.1252 15.1763 54.9445 13.5297C52.455 10.0576 49.7464 7.63571 46.5866 6.0565C44.3155 4.92149 42.557 4.5049 40.0417 4.50605C38.0794 4.50694 37.0614 4.7064 35.7331 5.35029C34.7645 5.81975 33.5895 6.99366 33.1397 7.94112C32.6581 8.95574 32.2356 10.48 32.1641 11.4613L32.1025 12.3058L32.6622 13.4273C33.3906 14.8867 34.0823 15.8067 35.5617 17.2832C37.4563 19.1743 39.3209 20.4777 43.3687 22.7405C48.3176 25.5072 50.7233 26.5943 51.9315 26.6101L52.4769 26.6173L53.5677 25.4021ZM80.2896 20.9187C83.0944 20.1982 84.8887 16.9566 84.2232 13.812C83.5655 10.7046 81.1928 9.1166 77.4563 9.28311C75.0481 9.39043 74.1768 9.7003 71.3921 11.4399C70.4319 12.0397 68.8715 13.2162 68.5303 13.5976C68.3056 13.8487 68.1831 13.7428 71.2809 15.9771C72.0241 16.5131 73.3147 17.6019 74.1489 18.3967C76.1392 20.293 76.8925 20.7998 78.0857 21.0452C78.5948 21.1499 79.6181 21.0912 80.2896 20.9187ZM77.7475 18.151C76.8419 17.6933 75.6745 16.6617 75.2591 15.9519C74.8307 15.2199 75.0012 15.1945 75.5691 15.9058C76.7178 17.3447 78.1642 17.4881 79.008 16.2468C79.3907 15.6838 79.4273 15.2378 79.1396 14.6427C78.4175 13.149 77.1129 12.6247 74.6908 12.8547C74.052 12.9153 73.2615 12.965 72.934 12.965L72.3387 12.9651L73.3158 12.4036C74.3677 11.7992 75.3817 11.4103 76.5635 11.1579C77.5806 10.9407 78.3388 10.9587 79.1841 11.2201C80.9886 11.7782 82.182 13.8894 81.8587 15.9519C81.6173 17.4925 80.6832 18.3927 79.21 18.5047C78.6105 18.5503 78.4706 18.5164 77.7475 18.151ZM61.5014 15.9221L61.9086 15.5457L61.4298 14.6445C60.2668 12.4556 58.4299 10.0513 55.7743 7.24252L54.3395 5.72487L54.8577 5.80268C57.0846 6.13706 59.9883 8.05194 63.1751 11.2878L64.6015 12.7362L65.2749 12.0559C65.6453 11.6817 65.9483 11.3232 65.9483 11.2593C65.9483 11.0753 63.6871 8.92799 62.785 8.25532C58.8956 5.35513 53.136 3.37184 48.4409 3.31604C46.1426 3.28873 45.8501 3.51524 47.4678 4.06939C49.7743 4.85946 51.7646 6.18402 54.0162 8.42737C56.1328 10.5362 57.8766 12.8422 59.6203 15.8385L60.3073 17.0189L60.7008 16.6586C60.9172 16.4605 61.2775 16.129 61.5014 15.9221ZM62.559 13.5699C63.06 13.3105 63.1448 12.8472 62.7771 12.3791C62.3312 11.8116 61.3669 12.1708 61.3669 12.9044C61.3669 13.1782 61.5455 13.4325 61.8578 13.6035C62.1446 13.7606 62.1953 13.7582 62.559 13.5699ZM60.522 10.8626C60.8274 10.6291 60.871 10.1749 60.6128 9.91644C60.1921 9.49521 59.5126 9.74747 59.5126 10.3249C59.5126 10.873 60.0996 11.1857 60.522 10.8626Z" fill="white"/>
</g>
<defs>
<clipPath id="clip0_316_425">
<rect width="87" height="87" fill="white"/>
</clipPath>
</defs>
</svg>
